<mxfile host="app.diagrams.net" agent="Mozilla/5.0 (Macintosh; Intel Mac OS X 10_15_7) AppleWebKit/537.36 (KHTML, like Gecko) Chrome/127.0.0.0 Safari/537.36" version="24.7.6">
  <diagram id="C5RBs43oDa-KdzZeNtuy" name="Page-1">
    <mxGraphModel dx="845" dy="561" grid="1" gridSize="10" guides="1" tooltips="1" connect="1" arrows="1" fold="1" page="1" pageScale="1" pageWidth="827" pageHeight="1169" math="0" shadow="0">
      <root>
        <mxCell id="WIyWlLk6GJQsqaUBKTNV-0" />
        <mxCell id="WIyWlLk6GJQsqaUBKTNV-1" parent="WIyWlLk6GJQsqaUBKTNV-0" />
        <mxCell id="dMlcZU1wggi_HhM93amd-42" value="页面初始化" style="swimlane;fillColor=#f5f5f5;swimlaneFillColor=#f4f4f4;fontColor=#333333;strokeColor=#666666;" vertex="1" parent="WIyWlLk6GJQsqaUBKTNV-1">
          <mxGeometry x="490" y="80" width="190" height="420" as="geometry" />
        </mxCell>
        <mxCell id="dMlcZU1wggi_HhM93amd-1" value="筛选页面的text元素" style="rounded=1;whiteSpace=wrap;html=1;fontSize=12;glass=0;strokeWidth=1;shadow=0;fillColor=#f8cecc;strokeColor=#b85450;" vertex="1" parent="dMlcZU1wggi_HhM93amd-42">
          <mxGeometry x="35" y="60" width="120" height="40" as="geometry" />
        </mxCell>
        <mxCell id="WIyWlLk6GJQsqaUBKTNV-3" value="监听页面请求" style="rounded=1;whiteSpace=wrap;html=1;fontSize=12;glass=0;strokeWidth=1;shadow=0;fillColor=#fff2cc;strokeColor=#d6b656;" parent="dMlcZU1wggi_HhM93amd-42" vertex="1">
          <mxGeometry x="30" y="160" width="120" height="40" as="geometry" />
        </mxCell>
        <mxCell id="dMlcZU1wggi_HhM93amd-34" value="&lt;span style=&quot;text-align: left; background-color: initial;&quot;&gt;查询type为&lt;/span&gt;&lt;span style=&quot;text-align: left; background-color: initial;&quot;&gt;json/i18n的script&lt;/span&gt;&lt;span style=&quot;text-align: left; text-wrap: nowrap; background-color: initial; color: rgba(0, 0, 0, 0); font-family: monospace; font-size: 0px;&quot;&gt;%3CmxGraphModel%3E%3Croot%3E%3CmxCell%20id%3D%220%22%2F%3E%3CmxCell%20id%3D%221%22%20parent%3D%220%22%2F%3E%3CmxCell%20id%3D%222%22%20value%3D%22%22%20style%3D%22rounded%3D0%3Bhtml%3D1%3BjettySize%3Dauto%3BorthogonalLoop%3D1%3BfontSize%3D11%3BendArrow%3Dblock%3BendFill%3D0%3BendSize%3D8%3BstrokeWidth%3D1%3Bshadow%3D0%3BlabelBackgroundColor%3Dnone%3BedgeStyle%3DorthogonalEdgeStyle%3BentryX%3D0.5%3BentryY%3D0%3BentryDx%3D0%3BentryDy%3D0%3B%22%20edge%3D%221%22%20source%3D%223%22%20target%3D%225%22%20parent%3D%221%22%3E%3CmxGeometry%20relative%3D%221%22%20as%3D%22geometry%22%3E%3CmxPoint%20x%3D%22220%22%20y%3D%22170%22%20as%3D%22targetPoint%22%2F%3E%3C%2FmxGeometry%3E%3C%2FmxCell%3E%3CmxCell%20id%3D%223%22%20value%3D%22%E7%9B%91%E5%90%AC%E9%A1%B5%E9%9D%A2%E8%AF%B7%E6%B1%82%22%20style%3D%22rounded%3D1%3BwhiteSpace%3Dwrap%3Bhtml%3D1%3BfontSize%3D12%3Bglass%3D0%3BstrokeWidth%3D1%3Bshadow%3D0%3BfillColor%3D%23d5e8d4%3BstrokeColor%3D%2382b366%3B%22%20vertex%3D%221%22%20parent%3D%221%22%3E%3CmxGeometry%20x%3D%22230%22%20y%3D%22270%22%20width%3D%22120%22%20height%3D%2240%22%20as%3D%22geometry%22%2F%3E%3C%2FmxCell%3E%3CmxCell%20id%3D%224%22%20style%3D%22edgeStyle%3DorthogonalEdgeStyle%3Brounded%3D0%3BorthogonalLoop%3D1%3BjettySize%3Dauto%3Bhtml%3D1%3BentryX%3D0.5%3BentryY%3D0%3BentryDx%3D0%3BentryDy%3D0%3B%22%20edge%3D%221%22%20source%3D%225%22%20target%3D%226%22%20parent%3D%221%22%3E%3CmxGeometry%20relative%3D%221%22%20as%3D%22geometry%22%2F%3E%3C%2FmxCell%3E%3CmxCell%20id%3D%225%22%20value%3D%22%26lt%3Bspan%20style%3D%26quot%3Btext-wrap%3A%20nowrap%3B%26quot%3B%26gt%3B%E8%8E%B7%E5%8F%96%E5%A4%9A%E8%AF%AD%E8%A8%80%E8%AF%B7%E6%B1%82%E5%86%85%E5%AE%B9%26lt%3B%2Fspan%26gt%3B%22%20style%3D%22rounded%3D1%3BwhiteSpace%3Dwrap%3Bhtml%3D1%3BfontSize%3D12%3Bglass%3D0%3BstrokeWidth%3D1%3Bshadow%3D0%3BfillColor%3D%23d5e8d4%3BstrokeColor%3D%2382b366%3B%22%20vertex%3D%221%22%20parent%3D%221%22%3E%3CmxGeometry%20x%3D%22230%22%20y%3D%22360%22%20width%3D%22120%22%20height%3D%2240%22%20as%3D%22geometry%22%2F%3E%3C%2FmxCell%3E%3CmxCell%20id%3D%226%22%20value%3D%22%E5%82%A8%E5%AD%98%E5%A4%9A%E8%AF%AD%E8%A8%80%E7%9A%84%E5%86%85%E5%AE%B9%22%20style%3D%22rounded%3D1%3BwhiteSpace%3Dwrap%3Bhtml%3D1%3BfillColor%3D%23d5e8d4%3BstrokeColor%3D%2382b366%3B%22%20vertex%3D%221%22%20parent%3D%221%22%3E%3CmxGeometry%20x%3D%22230%22%20y%3D%22440%22%20width%3D%22120%22%20height%3D%2240%22%20as%3D%22geometry%22%2F%3E%3C%2FmxCell%3E%3C%2Froot%3E%3C%2FmxGraphModel%3E&lt;/span&gt;&lt;span style=&quot;text-align: left; text-wrap: nowrap; background-color: initial; font-size: 0px;&quot;&gt;&lt;font color=&quot;rgba(0, 0, 0, 0)&quot; face=&quot;monospace&quot;&gt;json/i18n&lt;/font&gt;&lt;/span&gt;" style="rounded=1;whiteSpace=wrap;html=1;fillColor=#dae8fc;strokeColor=#6c8ebf;" vertex="1" parent="dMlcZU1wggi_HhM93amd-42">
          <mxGeometry x="30" y="250" width="130" height="40" as="geometry" />
        </mxCell>
        <mxCell id="dMlcZU1wggi_HhM93amd-43" value="&lt;div style=&quot;text-align: left;&quot;&gt;&lt;span style=&quot;background-color: initial;&quot;&gt;页面是否有NCMS模块&lt;/span&gt;&lt;/div&gt;" style="rounded=1;whiteSpace=wrap;html=1;fillColor=#ffe6cc;strokeColor=#d79b00;" vertex="1" parent="dMlcZU1wggi_HhM93amd-42">
          <mxGeometry x="30" y="340" width="130" height="40" as="geometry" />
        </mxCell>
        <mxCell id="dMlcZU1wggi_HhM93amd-44" value="解析页面信息" style="swimlane;swimlaneFillColor=#f3f3f3;fillColor=#f1f1f1;" vertex="1" parent="WIyWlLk6GJQsqaUBKTNV-1">
          <mxGeometry x="680" y="80" width="190" height="420" as="geometry" />
        </mxCell>
        <mxCell id="dMlcZU1wggi_HhM93amd-0" value="&lt;span style=&quot;text-wrap: nowrap;&quot;&gt;缓存多语言请求内容&lt;/span&gt;" style="rounded=1;whiteSpace=wrap;html=1;fontSize=12;glass=0;strokeWidth=1;shadow=0;fillColor=#fff2cc;strokeColor=#d6b656;" vertex="1" parent="dMlcZU1wggi_HhM93amd-44">
          <mxGeometry x="35" y="160" width="120" height="40" as="geometry" />
        </mxCell>
        <mxCell id="dMlcZU1wggi_HhM93amd-6" value="获取每个text的内容" style="rounded=1;whiteSpace=wrap;html=1;fontSize=12;glass=0;strokeWidth=1;shadow=0;fillColor=#f8cecc;strokeColor=#b85450;" vertex="1" parent="dMlcZU1wggi_HhM93amd-44">
          <mxGeometry x="35" y="60" width="120" height="40" as="geometry" />
        </mxCell>
        <mxCell id="dMlcZU1wggi_HhM93amd-49" value="&lt;div style=&quot;text-align: left;&quot;&gt;查找NCMS模块信息&lt;/div&gt;" style="rounded=1;whiteSpace=wrap;html=1;fillColor=#ffe6cc;strokeColor=#d79b00;" vertex="1" parent="dMlcZU1wggi_HhM93amd-44">
          <mxGeometry x="30" y="340" width="130" height="40" as="geometry" />
        </mxCell>
        <mxCell id="dMlcZU1wggi_HhM93amd-50" value="缓存多语言脚本内容" style="rounded=1;whiteSpace=wrap;html=1;fillColor=#dae8fc;strokeColor=#6c8ebf;" vertex="1" parent="dMlcZU1wggi_HhM93amd-44">
          <mxGeometry x="35" y="250" width="120" height="40" as="geometry" />
        </mxCell>
        <mxCell id="dMlcZU1wggi_HhM93amd-51" value="匹配页面信息" style="swimlane;fillColor=#f1f1f1;fontColor=default;strokeColor=#666666;swimlaneFillColor=#f1f1f1;" vertex="1" parent="WIyWlLk6GJQsqaUBKTNV-1">
          <mxGeometry x="870" y="80" width="190" height="420" as="geometry" />
        </mxCell>
        <mxCell id="dMlcZU1wggi_HhM93amd-58" style="edgeStyle=orthogonalEdgeStyle;rounded=0;orthogonalLoop=1;jettySize=auto;html=1;" edge="1" parent="dMlcZU1wggi_HhM93amd-51" source="dMlcZU1wggi_HhM93amd-52" target="dMlcZU1wggi_HhM93amd-55">
          <mxGeometry relative="1" as="geometry" />
        </mxCell>
        <mxCell id="dMlcZU1wggi_HhM93amd-52" value="&lt;span style=&quot;text-wrap: nowrap;&quot;&gt;请求返回体&lt;/span&gt;" style="rounded=1;whiteSpace=wrap;html=1;fontSize=12;glass=0;strokeWidth=1;shadow=0;fillColor=#fff2cc;strokeColor=#d6b656;" vertex="1" parent="dMlcZU1wggi_HhM93amd-51">
          <mxGeometry x="35" y="160" width="120" height="40" as="geometry" />
        </mxCell>
        <mxCell id="dMlcZU1wggi_HhM93amd-56" style="edgeStyle=orthogonalEdgeStyle;rounded=0;orthogonalLoop=1;jettySize=auto;html=1;" edge="1" parent="dMlcZU1wggi_HhM93amd-51" source="dMlcZU1wggi_HhM93amd-53" target="dMlcZU1wggi_HhM93amd-52">
          <mxGeometry relative="1" as="geometry" />
        </mxCell>
        <mxCell id="dMlcZU1wggi_HhM93amd-53" value="text" style="rounded=1;whiteSpace=wrap;html=1;fontSize=12;glass=0;strokeWidth=1;shadow=0;fillColor=#f8cecc;strokeColor=#b85450;" vertex="1" parent="dMlcZU1wggi_HhM93amd-51">
          <mxGeometry x="35" y="60" width="120" height="40" as="geometry" />
        </mxCell>
        <mxCell id="dMlcZU1wggi_HhM93amd-54" value="&lt;div style=&quot;text-align: left;&quot;&gt;跳转对应模块&lt;/div&gt;" style="rounded=1;whiteSpace=wrap;html=1;fillColor=#ffe6cc;strokeColor=#d79b00;" vertex="1" parent="dMlcZU1wggi_HhM93amd-51">
          <mxGeometry x="30" y="340" width="130" height="40" as="geometry" />
        </mxCell>
        <mxCell id="dMlcZU1wggi_HhM93amd-66" style="edgeStyle=orthogonalEdgeStyle;rounded=0;orthogonalLoop=1;jettySize=auto;html=1;entryX=0.5;entryY=0;entryDx=0;entryDy=0;" edge="1" parent="dMlcZU1wggi_HhM93amd-51" source="dMlcZU1wggi_HhM93amd-55" target="dMlcZU1wggi_HhM93amd-54">
          <mxGeometry relative="1" as="geometry" />
        </mxCell>
        <mxCell id="dMlcZU1wggi_HhM93amd-55" value="多语言脚本的内容" style="rounded=1;whiteSpace=wrap;html=1;fillColor=#dae8fc;strokeColor=#6c8ebf;" vertex="1" parent="dMlcZU1wggi_HhM93amd-51">
          <mxGeometry x="30" y="250" width="130" height="40" as="geometry" />
        </mxCell>
        <mxCell id="dMlcZU1wggi_HhM93amd-57" value="正则匹配key" style="text;html=1;align=center;verticalAlign=middle;resizable=0;points=[];autosize=1;strokeColor=none;fillColor=none;" vertex="1" parent="dMlcZU1wggi_HhM93amd-51">
          <mxGeometry x="10" y="120" width="90" height="30" as="geometry" />
        </mxCell>
        <mxCell id="dMlcZU1wggi_HhM93amd-67" value="正则匹配key" style="text;html=1;align=center;verticalAlign=middle;resizable=0;points=[];autosize=1;strokeColor=none;fillColor=none;" vertex="1" parent="dMlcZU1wggi_HhM93amd-51">
          <mxGeometry x="10" y="210" width="90" height="30" as="geometry" />
        </mxCell>
      </root>
    </mxGraphModel>
  </diagram>
</mxfile>
